ply
format ascii 1.0
comment Created in Blender version 3.6.5
element vertex 34
property float x
property float y
property float z
property float nx
property float ny
property float nz
property uchar red
property uchar green
property uchar blue
property uchar alpha
element face 64
property list uchar uint vertex_indices
end_header
0.9061928 -0.46741647 1.1318622 -0.72388345 0.48798504 -0.48771226 107 225 235 255
0.7376043 -0.46741647 -0.0041221976 -0.78713787 0.61653465 0.01729175 209 212 158 255
0.9061928 0.48308975 1.1318622 -0.7207865 -0.49685842 -0.4833203 101 226 235 255
0.7376043 0.48308975 -0.0041221976 -0.78294456 -0.62204146 0.007885974 206 231 195 255
0 -0.6968497 1.2864704 -7.887426e-09 0.7219089 -0.691988 126 249 230 255
0 -0.6968497 -0.0041221976 9.875759e-09 0.9999943 0.0033829396 201 219 167 255
0 0.712523 1.2864704 -3.9982404e-09 -0.72855747 -0.6849847 254 254 254 255
0 0.712523 -0.04111871 -4.9536557e-09 -0.9999518 -0.009826916 229 250 179 255
0.86075294 -0.46741647 -1.1805048 -0.78874135 0.61454505 -0.014885965 234 241 143 255
0.860753 0.48308975 -1.1805048 -0.79466903 -0.6056457 -0.041162968 229 254 152 255
0 -0.6968497 -1.3987131 0 0.98598975 0.16680607 230 251 149 255
0 0.712523 -1.6709331 0 -0.9841928 0.17710017 229 254 152 255
0.9492843 -0.28145874 -2.9748857 -0.7566421 0.65369576 0.013216161 230 252 150 255
0.9492843 0.37041146 -2.9748857 -0.7618362 -0.64745814 0.020086868 229 254 152 255
0.34036878 -0.3653161 -2.96538 0.6286745 0.74408025 0.2260813 230 252 150 255
0.34036878 0.45426887 -2.96538 0.6322164 -0.73262364 0.2521212 229 254 152 255
1.068249 -0.15278977 -4.9373593 -0.627643 0.51056474 0.5876972 254 176 84 255
1.068249 0.2417425 -4.9373593 -0.62764347 -0.51056445 0.58769685 253 178 88 255
0.6997142 -0.20354286 -4.931606 0.48482066 0.60545075 0.63117224 254 176 83 255
0.6997142 0.2924956 -4.931606 0.48482022 -0.60545087 0.6311724 253 254 248 255
-0.9061928 -0.46741647 1.1318622 0.72388345 0.48798504 -0.48771226 107 225 235 255
-0.7376043 -0.46741647 -0.0041221976 0.78713787 0.61653465 0.01729175 209 212 158 255
-0.9061928 0.48308975 1.1318622 0.7207865 -0.49685842 -0.4833203 101 226 235 255
-0.7376043 0.48308975 -0.0041221976 0.78294456 -0.62204146 0.007885974 206 231 195 255
-0.86075294 -0.46741647 -1.1805048 0.78874135 0.61454505 -0.014885965 234 241 143 255
-0.860753 0.48308975 -1.1805048 0.79466903 -0.6056457 -0.041162968 229 254 152 255
-0.9492843 -0.28145874 -2.9748857 0.7566421 0.65369576 0.013216161 230 252 150 255
-0.9492843 0.37041146 -2.9748857 0.7618362 -0.64745814 0.020086868 229 254 152 255
-0.34036878 -0.3653161 -2.96538 -0.6286745 0.74408025 0.2260813 230 252 150 255
-0.34036878 0.45426887 -2.96538 -0.6322164 -0.73262364 0.2521212 229 254 152 255
-1.068249 -0.15278977 -4.9373593 0.627643 0.51056474 0.5876972 254 176 84 255
-1.068249 0.2417425 -4.9373593 0.62764347 -0.51056445 0.58769685 253 178 88 255
-0.6997142 -0.20354286 -4.931606 -0.48482066 0.60545075 0.63117224 254 176 83 255
-0.6997142 0.2924956 -4.931606 -0.48482022 -0.60545087 0.6311724 253 254 248 255
3 4 2 0
3 3 6 7
3 3 8 1
3 0 3 1
3 5 0 1
3 9 12 8
3 5 8 10
3 7 9 3
3 13 16 12
3 8 14 10
3 11 13 9
3 11 14 15
3 16 19 18
3 12 18 14
3 13 19 17
3 14 19 15
3 4 6 2
3 3 2 6
3 3 9 8
3 0 2 3
3 5 4 0
3 9 13 12
3 5 1 8
3 7 11 9
3 13 17 16
3 8 12 14
3 11 15 13
3 11 10 14
3 16 17 19
3 12 16 18
3 13 15 19
3 14 18 19
3 4 20 22
3 23 7 6
3 23 21 24
3 20 21 23
3 5 21 20
3 25 24 26
3 5 10 24
3 7 23 25
3 27 26 30
3 24 10 28
3 11 25 27
3 11 29 28
3 30 32 33
3 26 28 32
3 27 31 33
3 28 29 33
3 4 22 6
3 23 6 22
3 23 24 25
3 20 23 22
3 5 20 4
3 25 26 27
3 5 24 21
3 7 25 11
3 27 30 31
3 24 28 26
3 11 27 29
3 11 28 10
3 30 33 31
3 26 32 30
3 27 33 29
3 28 33 32
